<?xml version="1.0" standalone="no"?>
<!DOCTYPE svg PUBLIC "-//W3C//DTD SVG 20010904//EN"
 "http://www.w3.org/TR/2001/REC-SVG-20010904/DTD/svg10.dtd">
<svg version="1.0" xmlns="http://www.w3.org/2000/svg"
 width="753.000000pt" height="753.000000pt" viewBox="0 0 753.000000 753.000000"
 preserveAspectRatio="xMidYMid meet">
<metadata>
Created by potrace 1.11, written by Peter Selinger 2001-2013
</metadata>
<g transform="translate(0.000000,753.000000) scale(0.100000,-0.100000)"
fill="#000000" stroke="none">
<path d="M3660 7520 c-148 -44 -240 -177 -236 -341 2 -70 7 -93 30 -138 16
-30 34 -61 42 -69 8 -7 14 -16 14 -20 0 -4 25 -23 55 -42 51 -33 54 -37 50
-69 -3 -18 -8 -37 -11 -42 -3 -5 -7 -23 -9 -41 -2 -18 -6 -42 -9 -53 -11 -43
-67 -291 -71 -315 -2 -14 -7 -36 -10 -50 -7 -28 -14 -65 -20 -97 -2 -12 -8
-30 -13 -40 -10 -18 -36 -18 -644 -17 -348 0 -640 -3 -648 -7 -13 -6 -16 -40
-15 -233 l0 -226 -152 0 c-84 0 -154 -4 -158 -9 -9 -15 -8 -772 2 -782 4 -4
44 -9 87 -11 l80 -3 0 -300 c1 -165 4 -305 8 -310 4 -7 216 -11 642 -10 415 0
637 -3 639 -10 2 -5 3 -30 2 -55 -1 -43 -2 -45 -33 -46 -18 -1 -35 -4 -38 -7
-3 -3 -7 -41 -8 -84 l-1 -78 -170 0 -170 1 -40 40 c-88 88 -185 129 -316 134
-24 1 -46 1 -49 0 -3 -1 -16 -3 -30 -5 -65 -7 -169 -47 -178 -67 -2 -5 -8 -8
-13 -8 -18 0 -99 -82 -132 -134 -53 -83 -71 -148 -72 -261 0 -92 -2 -103 -26
-135 -15 -19 -36 -51 -47 -70 -18 -33 -133 -228 -152 -260 -95 -156 -102 -171
-96 -211 6 -37 1 -49 -52 -137 -32 -53 -62 -104 -66 -112 -49 -96 -74 -134
-91 -136 -33 -5 -107 -48 -146 -84 -40 -37 -82 -113 -94 -168 -4 -17 -10 -32
-13 -33 -4 0 -16 -2 -27 -4 -11 -2 -38 -6 -60 -9 -22 -2 -40 -5 -40 -6 0 -1
-16 -4 -35 -6 -19 -2 -44 -5 -55 -7 -11 -2 -31 -1 -45 3 -14 4 -35 3 -48 -1
-22 -8 -78 -66 -98 -101 -5 -10 -13 -15 -17 -12 -4 4 -7 2 -7 -4 0 -6 -6 -17
-13 -24 -7 -7 -26 -31 -42 -53 -17 -21 -37 -47 -45 -55 -54 -59 -130 -168
-130 -187 0 -7 -4 -13 -9 -13 -5 0 -12 -15 -16 -32 -4 -18 -10 -42 -14 -53 -7
-25 -6 -172 2 -202 13 -48 69 -153 87 -163 16 -8 25 -2 57 38 21 26 40 49 44
52 3 3 32 39 65 80 32 41 66 82 74 92 8 9 42 50 75 92 33 41 66 75 73 76 25 0
171 -125 168 -144 -1 -11 -50 -74 -91 -120 -5 -6 -37 -45 -69 -86 -32 -41 -64
-79 -70 -85 -6 -5 -27 -30 -45 -55 -19 -25 -41 -50 -48 -56 -23 -19 -26 -61
-6 -69 82 -31 263 -39 289 -12 4 4 18 7 31 7 12 0 23 4 23 10 0 5 4 9 8 7 23
-6 201 136 202 161 0 4 17 25 38 48 20 22 48 56 62 74 14 18 33 42 43 54 10
11 26 30 35 41 68 80 80 113 54 160 -5 11 -13 64 -17 118 -6 78 -4 97 7 98 90
5 200 88 245 185 26 58 38 159 23 199 -9 24 0 44 93 200 91 156 105 174 129
175 30 0 67 39 100 104 11 22 23 43 27 46 3 3 13 19 21 35 8 17 18 32 21 35 4
3 16 23 28 45 87 162 122 209 154 212 15 1 28 -1 28 -5 1 -4 2 -330 3 -725 1
-559 4 -719 13 -725 7 -5 49 -7 93 -7 74 2 95 -4 70 -20 -5 -3 -19 -25 -29
-48 -18 -40 -19 -53 -9 -154 1 -7 5 -13 10 -13 4 0 8 -6 8 -14 0 -8 14 -26 32
-40 l32 -25 -27 -27 c-15 -15 -27 -32 -27 -40 0 -7 -5 -14 -10 -16 -15 -5 -21
-96 -9 -141 5 -20 24 -53 40 -72 25 -29 28 -36 15 -41 -25 -10 -57 -74 -61
-123 -5 -61 9 -108 43 -150 l28 -33 -28 -30 c-15 -16 -32 -47 -38 -69 -8 -28
-16 -39 -30 -39 -53 0 -323 -107 -350 -139 -3 -3 -25 -19 -48 -36 -66 -44
-155 -147 -195 -223 -43 -83 -57 -128 -62 -191 -2 -27 -6 -54 -9 -59 -9 -15
17 -31 65 -38 69 -11 1529 -12 1529 -2 0 5 5 6 12 2 16 -10 74 -7 97 5 16 9
18 24 15 178 -3 203 -11 316 -24 362 -5 19 -6 37 -2 40 12 9 17 63 13 127 0
12 -16 44 -34 71 -32 48 -33 49 -14 68 11 11 26 36 35 55 17 38 23 120 9 120
-4 0 -5 4 -2 10 8 12 -19 64 -47 90 l-21 20 20 17 c78 68 74 219 -7 287 l-29
23 23 19 c38 31 59 84 59 145 1 46 -5 64 -29 100 l-30 44 183 0 c101 0 183 -3
183 -7 0 -5 -4 -8 -8 -8 -18 0 -46 -83 -45 -131 1 -49 30 -116 59 -132 20 -12
17 -23 -14 -54 -38 -38 -61 -101 -55 -155 5 -44 34 -103 61 -125 14 -11 13
-15 -5 -35 -67 -73 -75 -191 -19 -255 40 -45 40 -45 24 -57 -49 -36 -78 -159
-50 -212 7 -13 8 -34 2 -60 -21 -91 -32 -516 -14 -534 8 -8 96 -13 265 -15
140 -2 254 -4 254 -5 0 -1 15 -2 33 -3 17 -1 32 1 32 5 0 4 6 5 14 2 22 -8
136 -10 149 -2 6 4 15 4 21 1 12 -8 66 -10 66 -3 0 4 61 4 68 0 7 -5 60 -3 75
3 9 3 19 2 22 -3 3 -6 15 -6 30 0 14 5 25 6 25 2 0 -8 134 -6 156 2 7 3 16 1
19 -4 3 -5 18 -5 35 0 19 5 30 5 30 -1 0 -6 5 -7 11 -4 6 4 81 9 167 11 176 4
209 7 223 21 32 32 -14 216 -78 314 -94 147 -303 293 -478 335 -11 3 -24 7
-30 8 -5 2 -25 7 -44 11 -26 6 -37 16 -48 44 -8 20 -26 51 -40 69 l-25 33 20
22 c68 72 64 214 -6 275 l-22 19 22 19 c31 28 57 93 56 144 0 47 -39 134 -64
144 -16 6 -8 36 10 36 22 0 59 82 62 139 3 45 -2 64 -21 98 -14 23 -25 43 -25
45 0 2 25 4 56 4 31 1 59 6 63 12 3 6 6 332 5 726 -1 393 2 713 6 711 5 -3 39
-58 76 -122 37 -65 72 -119 76 -121 4 -2 8 -8 8 -13 0 -5 18 -38 40 -74 22
-36 40 -68 40 -70 0 -14 56 -65 71 -65 26 0 49 -11 49 -22 0 -9 20 -44 87
-153 7 -11 28 -48 48 -83 20 -34 40 -62 45 -62 4 0 6 -15 2 -32 -18 -102 0
-204 47 -268 29 -40 67 -80 76 -80 3 0 18 -9 34 -21 15 -11 50 -26 77 -33 27
-7 48 -18 46 -25 -1 -6 -5 -46 -8 -88 -4 -42 -12 -93 -18 -112 -7 -20 -11 -42
-10 -48 1 -7 2 -17 3 -22 1 -11 88 -119 113 -142 10 -9 18 -19 18 -23 0 -9
135 -170 175 -209 17 -16 48 -41 70 -56 22 -14 43 -30 46 -34 3 -5 9 -8 13 -8
3 1 31 -6 61 -14 113 -33 294 -16 311 30 6 14 -38 77 -111 159 -5 6 -28 34
-49 61 -22 28 -44 55 -50 60 -27 24 -136 169 -135 179 0 15 153 136 170 135
12 0 87 -84 114 -127 6 -9 17 -24 25 -32 9 -8 45 -51 80 -95 35 -44 67 -82 70
-85 3 -3 23 -26 44 -52 45 -57 59 -54 98 19 56 103 71 221 43 320 -16 55 -64
153 -89 179 -6 6 -29 35 -51 63 -22 28 -43 51 -47 51 -5 0 -8 5 -8 10 0 6 -5
16 -10 23 -6 7 -24 28 -41 47 -17 19 -40 48 -52 63 -57 75 -91 97 -132 87 -15
-4 -87 -1 -110 4 -11 2 -45 7 -75 11 -30 4 -61 9 -69 10 -8 1 -23 28 -33 60
-27 81 -52 116 -133 184 -22 18 -115 53 -115 43 0 -4 -11 16 -25 43 -13 28
-37 71 -52 97 -15 25 -46 77 -67 115 -21 37 -45 75 -53 85 -10 11 -11 18 -4
23 13 8 15 85 2 85 -5 0 -16 16 -26 36 -9 20 -41 76 -71 125 -30 48 -54 93
-54 99 0 5 -4 10 -10 10 -5 0 -10 4 -10 9 0 5 -18 38 -40 72 -22 35 -44 74
-49 85 -5 12 -24 38 -41 57 -17 20 -26 38 -21 41 15 10 6 186 -12 229 -9 20
-14 37 -11 37 6 0 -63 108 -91 142 -13 15 -26 24 -29 21 -3 -4 -6 -1 -6 5 0
26 -147 103 -225 117 -16 3 -57 5 -90 6 -51 0 -74 -4 -133 -22 -4 -1 -15 -4
-24 -7 -36 -9 -100 -49 -155 -97 l-57 -50 -103 0 c-85 0 -103 2 -104 15 -1 8
-2 43 -3 77 0 34 -5 65 -9 69 -4 5 -22 9 -40 9 -32 1 -32 1 -33 53 -1 33 2 52
10 53 6 1 279 2 608 3 328 0 600 4 604 9 4 4 8 145 8 312 l0 305 71 0 c38 0
76 4 83 8 9 7 12 93 10 398 l-3 389 -160 5 -161 5 1 213 c0 117 -3 221 -6 230
-6 16 -56 17 -709 17 -658 0 -703 1 -711 18 -5 9 -8 17 -5 17 3 0 0 15 -5 33
-6 17 -13 46 -15 62 -5 31 -7 39 -24 120 -6 28 -14 61 -17 75 -3 14 -6 30 -7
35 -2 6 -6 28 -10 50 -4 22 -14 72 -23 110 -36 167 -35 162 -15 170 86 32 172
139 192 239 21 104 -8 235 -65 292 -8 8 -20 23 -27 32 -14 18 -31 30 -93 63
-42 23 -156 34 -205 19z"/>
</g>
</svg>
